<svg height="512pt" viewBox="-31 0 512 512" width="512pt" xmlns="http://www.w3.org/2000/svg"><path d="m300 15v60c0 8.398438-6.597656 15-15 15s-15-6.601562-15-15v-45h-90v45c0 8.398438-6.597656 15-15 15s-15-6.601562-15-15v-60c0-8.402344 6.597656-15 15-15h120c8.402344 0 15 6.597656 15 15zm0 0" fill="#73bcff"/><path d="m270 30h-45v-30h60c8.402344 0 15 6.597656 15 15v60c0 8.398438-6.597656 15-15 15s-15-6.601562-15-15zm0 0" fill="#0095ff"/><path d="m404.699219 140.601562-29.699219 357.597657c-.601562 7.800781-7.199219 13.800781-15 13.800781h-270c-7.800781 0-14.398438-6-15-13.800781l-29.699219-357.597657zm0 0" fill="#deecf1"/><path d="m418.5 129.398438v.902343h-387v-.902343l30-60c2.699219-5.097657 7.800781-8.398438 13.5-8.398438h300c5.699219 0 10.800781 3.300781 13.5 8.398438zm0 0" fill="#9ed0ff"/><path d="m225 140.601562h179.699219l-29.699219 357.597657c-.601562 7.800781-7.199219 13.800781-15 13.800781h-135zm0 0" fill="#a8d3d8"/><path d="m418.5 129.398438v.902343h-193.5v-69.300781h150c5.699219 0 10.800781 3.300781 13.5 8.398438zm0 0" fill="#3aaaff"/><path d="m150 421c-8.289062 0-15-6.710938-15-15v-180c0-8.289062 6.710938-15 15-15s15 6.710938 15 15v180c0 8.289062-6.710938 15-15 15zm0 0" fill="#c6e2e7"/><path d="m240 226v180c0 8.398438-6.597656 15-15 15s-15-6.601562-15-15v-180c0-8.402344 6.597656-15 15-15s15 6.597656 15 15zm0 0" fill="#c6e2e7"/><path d="m300 421c-8.289062 0-15-6.710938-15-15v-180c0-8.289062 6.710938-15 15-15s15 6.710938 15 15v180c0 8.289062-6.710938 15-15 15zm0 0" fill="#8ebac5"/><path d="m450 136c0 8.398438-6.597656 15-15 15h-420c-8.402344 0-15-6.601562-15-15 0-8.402344 6.597656-15 15-15h420c8.402344 0 15 6.597656 15 15zm0 0" fill="#73bcff"/><path d="m240 226v180c0 8.398438-6.597656 15-15 15v-210c8.402344 0 15 6.597656 15 15zm0 0" fill="#8ebac5"/><path d="m450 136c0 8.398438-6.597656 15-15 15h-210v-30h210c8.402344 0 15 6.597656 15 15zm0 0" fill="#0095ff"/></svg>