<?xml version="1.0" encoding="UTF-8" standalone="no"?>
<!-- Generator: Adobe Illustrator 18.0.0, SVG Export Plug-In . SVG Version: 6.00 Build 0)  -->

<svg
   xmlns:dc="http://purl.org/dc/elements/1.1/"
   xmlns:cc="http://creativecommons.org/ns#"
   xmlns:rdf="http://www.w3.org/1999/02/22-rdf-syntax-ns#"
   xmlns:svg="http://www.w3.org/2000/svg"
   xmlns="http://www.w3.org/2000/svg"
   xmlns:sodipodi="http://sodipodi.sourceforge.net/DTD/sodipodi-0.dtd"
   xmlns:inkscape="http://www.inkscape.org/namespaces/inkscape"
   version="1.1"
   id="Capa_1"
   x="0px"
   y="0px"
   viewBox="0 0 59 59"
   style="enable-background:new 0 0 59 59;"
   xml:space="preserve"
   sodipodi:docname="logo.svg"
   inkscape:version="0.92.3 (2405546, 2018-03-11)"><title
   id="title905">Logo</title><metadata
   id="metadata65"><rdf:RDF><cc:Work
       rdf:about=""><dc:format>image/svg+xml</dc:format><dc:type
         rdf:resource="http://purl.org/dc/dcmitype/StillImage" /><dc:title>Logo</dc:title></cc:Work></rdf:RDF></metadata><defs
   id="defs63">
	
	
	
	
	
	

		
		
		
			
		
		
		
			
		
	</defs><sodipodi:namedview
   pagecolor="#ffffff"
   bordercolor="#666666"
   borderopacity="1"
   objecttolerance="10"
   gridtolerance="10"
   guidetolerance="10"
   inkscape:pageopacity="0"
   inkscape:pageshadow="2"
   inkscape:window-width="1600"
   inkscape:window-height="837"
   id="namedview61"
   showgrid="false"
   inkscape:zoom="4"
   inkscape:cx="29.5"
   inkscape:cy="59.5"
   inkscape:window-x="-8"
   inkscape:window-y="-8"
   inkscape:window-maximized="1"
   inkscape:current-layer="Capa_1" />
<rect
   y="1"
   id="rect2"
   height="57"
   width="49"
   style="fill:#cbb292;stroke-width:1.04615283"
   x="1.365" /><rect
   y="1"
   id="rect4"
   height="57"
   width="4.75"
   style="fill:#7f6e5d;stroke-width:0.76388025"
   x="1.365" /><rect
   id="rect6"
   height="14.75"
   width="32.75"
   style="fill:#efebde;stroke-width:1.35269439"
   y="7.25"
   x="12.615" /><g
   id="g899"
   transform="rotate(25.238223,43.559916,5.8579224)"><polygon
     transform="matrix(0.74760997,-1.2247158,0.73609991,1.2916724,-13.021999,22.849267)"
     id="polygon12"
     points="36.201,49.507 36.194,49.515 34.205,56.804 38.852,52.158 "
     style="fill:#eddcc7" /><path
     inkscape:connector-curvature="0"
     id="path14"
     d="M 54.608698,0.84799528 52.758512,0.78433251 C 51.608637,0.74476663 50.668891,1.9185725 50.659971,3.4055521 l -0.04123,6.8727239 3.933315,0.135341 z"
     style="fill:#d75a4a;stroke-width:1.19317997" /><rect
     id="rect16"
     height="32.702991"
     width="3.9382055"
     style="fill:#f29c21;stroke-width:1.44625795"
     transform="matrix(0.99872731,0.05043567,-0.00408742,0.99999165,0,0)"
     y="7.1780252"
     x="50.711597" /><polygon
     transform="matrix(0.74760997,-1.2247158,0.73609991,1.2916724,-13.021999,22.849267)"
     id="polygon18"
     points="41.858,55.164 38.852,52.158 34.205,56.804 34.072,57.293 41.85,55.172 "
     style="fill:#d6c4b1" /><path
     inkscape:connector-curvature="0"
     id="path20"
     d="m 59.011352,10.613597 0.04123,-6.8922811 C 59.061482,2.230105 58.136225,0.98860304 56.98635,0.94892455 l -2.376904,-0.0820192 -0.05738,9.59185365 z"
     style="fill:#a34740;stroke-width:1.19487643" /><rect
     id="rect22"
     height="32.70018"
     width="4.4655395"
     style="fill:#e18c25;stroke-width:1.4461956"
     transform="matrix(-0.99872753,-0.05043134,0.00408778,-0.99999165,0,0)"
     y="-39.859337"
     x="-59.116043" /><path
     inkscape:connector-curvature="0"
     id="path24"
     d="m 55.351902,58.195296 c -0.191388,0.313527 -0.454914,0.500471 -0.744237,0.487414 -0.580131,-0.02618 -1.045346,-0.842517 -1.040845,-1.826425 l 0.0254,-5.553669 c 0.0045,-0.983907 0.47699,-1.757928 1.057121,-1.731748 0.58013,0.02618 1.045345,0.842517 1.040845,1.826425 l -0.0254,5.553669 c -0.0022,0.490696 -0.121495,0.930807 -0.312883,1.244334 z"
     style="fill:#5e5e5e;stroke-width:1.36644804" /></g>
<g
   id="g30">
</g>
<g
   id="g32">
</g>
<g
   id="g34">
</g>
<g
   id="g36">
</g>
<g
   id="g38">
</g>
<g
   id="g40">
</g>
<g
   id="g42">
</g>
<g
   id="g44">
</g>
<g
   id="g46">
</g>
<g
   id="g48">
</g>
<g
   id="g50">
</g>
<g
   id="g52">
</g>
<g
   id="g54">
</g>
<g
   id="g56">
</g>
<g
   id="g58">
</g>
<text
   xml:space="preserve"
   style="font-style:normal;font-variant:normal;font-weight:normal;font-stretch:normal;font-size:18.07880211px;line-height:1.25;font-family:Impact;-inkscape-font-specification:Impact;letter-spacing:0px;word-spacing:0px;fill:#008080;fill-opacity:1;stroke:none;stroke-width:0.45197004"
   x="18.281191"
   y="22.328693"
   id="text903"
   transform="scale(1.0365436,0.96474478)"><tspan
     sodipodi:role="line"
     id="tspan901"
     x="18.281191"
     y="22.328693"
     style="font-style:normal;font-variant:normal;font-weight:normal;font-stretch:normal;font-family:Impact;-inkscape-font-specification:Impact;fill:#008080;stroke-width:0.45197004">PB</tspan></text>
</svg>